<?xml version="1.0" encoding="UTF-8"?>
<!DOCTYPE svg PUBLIC "-//W3C//DTD SVG 1.1//EN" "http://www.w3.org/Graphics/SVG/1.1/DTD/svg11.dtd">
<!-- Creator: CorelDRAW 2019 (64-Bit) -->
<svg xmlns="http://www.w3.org/2000/svg" xml:space="preserve" width="111.876mm" height="111.971mm" version="1.1" style="shape-rendering:geometricPrecision; text-rendering:geometricPrecision; image-rendering:optimizeQuality; fill-rule:evenodd; clip-rule:evenodd"
viewBox="0 0 602.97 603.48"
 xmlns:xlink="http://www.w3.org/1999/xlink">
 <defs>
  <style type="text/css">
   <![CDATA[
    .fil0 {fill:black}
   ]]>
  </style>
 </defs>
 <g id="Layer_x0020_1">
  <metadata id="CorelCorpID_0Corel-Layer"/>
  <path class="fil0" d="M301.49 0c166.53,0.14 301.49,135.18 301.49,301.74 0,166.65 -135.1,301.74 -301.74,301.74 -160.78,0 -292.18,-125.76 -301.23,-284.28 11.64,72.55 74.52,127.99 150.36,127.99 84.11,0 152.3,-68.19 152.3,-152.3 0,-98.13 -1.17,-196.62 -1.17,-294.89zm-225.62 230.15c41.9,0 75.86,33.97 75.86,75.86 0,41.9 -33.97,75.86 -75.86,75.86 -41.9,0 -75.86,-33.97 -75.86,-75.86 0,-41.9 33.97,-75.86 75.86,-75.86z"/>
 </g>
</svg>
